<?xml version="1.0" standalone="no"?>
<!DOCTYPE svg PUBLIC "-//W3C//DTD SVG 20010904//EN"
 "http://www.w3.org/TR/2001/REC-SVG-20010904/DTD/svg10.dtd">
<svg version="1.0" xmlns="http://www.w3.org/2000/svg"
 width="1024.000000pt" height="1024.000000pt" viewBox="0 0 1024.000000 1024.000000"
 preserveAspectRatio="xMidYMid meet">

<g transform="translate(0.000000,1024.000000) scale(0.100000,-0.100000)"
fill="#000000" stroke="none">
<path d="M7171 8694 c-29 -21 -28 -35 22 -369 66 -435 71 -486 57 -559 -7 -37
-16 -68 -20 -71 -4 -3 -11 37 -15 88 -16 221 -36 317 -68 317 -35 0 -40 -27
-34 -158 6 -113 12 -171 33 -290 9 -57 -14 -27 -36 46 -11 37 -49 204 -85 372
-36 168 -74 321 -83 340 -19 38 -52 50 -79 29 -12 -11 -14 -28 -10 -84 4 -68
118 -539 191 -793 36 -123 50 -262 26 -262 -25 0 -35 27 -135 365 -129 439
-193 563 -249 483 -19 -27 -23 -8 85 -360 48 -157 104 -356 123 -441 38 -164
69 -360 64 -405 -4 -38 -62 101 -145 348 -86 258 -121 321 -159 289 -31 -26
-3 -164 95 -474 35 -111 54 -185 125 -491 31 -131 31 -130 9 -113 -26 22 -88
164 -128 294 -112 366 -122 390 -170 390 l-30 0 2 -65 c2 -78 49 -243 197
-697 124 -376 138 -423 127 -423 -15 0 -123 262 -206 500 -50 143 -68 184 -93
213 -37 42 -79 3 -68 -64 3 -21 69 -218 145 -437 141 -401 185 -547 179 -586
-5 -27 -41 42 -104 197 -61 149 -208 452 -240 494 -27 36 -54 42 -74 18 -19
-23 -1 -92 59 -222 82 -180 129 -297 201 -493 62 -169 120 -352 120 -379 0
-24 -27 -8 -71 39 -47 51 -82 63 -107 38 -18 -18 -15 -51 17 -151 16 -51 46
-162 66 -247 42 -172 76 -282 110 -350 34 -68 108 -163 155 -201 49 -39 111
-127 129 -181 15 -45 3 -149 -36 -313 -33 -140 -198 -624 -263 -771 -28 -61
-50 -119 -50 -127 0 -9 -5 -19 -11 -23 -8 -5 -10 6 -6 37 55 389 16 855 -79
969 -29 34 -68 40 -83 12 -6 -11 -10 -132 -10 -288 1 -424 -44 -867 -117
-1159 -37 -147 -128 -366 -211 -509 -19 -32 -16 -53 15 -86 19 -22 39 -33 69
-37 78 -10 89 0 246 235 188 282 555 786 953 1308 66 88 126 169 133 182 17
32 10 102 -11 116 -26 16 -55 -5 -191 -143 -173 -175 -231 -242 -364 -423
-108 -147 -165 -214 -151 -178 4 8 35 85 71 170 57 138 155 423 276 804 72
225 103 272 255 386 171 128 223 197 366 485 64 131 113 213 168 287 106 140
181 250 183 268 9 84 -50 71 -147 -32 -28 -29 -82 -101 -122 -160 -87 -128
-102 -142 -102 -102 1 91 152 437 301 685 95 159 139 256 139 306 0 36 -3 43
-19 43 -11 0 -33 -12 -50 -26 -34 -28 -143 -196 -246 -379 -74 -132 -110 -185
-127 -185 -19 0 0 65 141 490 163 488 186 568 178 602 -17 66 -76 27 -111 -74
-63 -179 -207 -511 -226 -523 -23 -14 -5 87 73 405 164 668 183 766 155 804
-19 25 -56 13 -69 -22 -6 -15 -33 -103 -61 -197 -139 -472 -166 -545 -154
-407 8 93 69 476 96 607 11 55 26 162 32 238 10 118 9 140 -3 148 -20 13 -27
11 -48 -10 -24 -24 -34 -59 -76 -267 -35 -174 -69 -270 -85 -244 -6 8 -8 40
-5 70 3 30 9 116 15 190 5 74 17 227 25 340 9 113 15 282 13 375 l-3 170 -27
3 c-48 6 -55 -22 -61 -223 -6 -187 -26 -350 -52 -421 -9 -22 -29 -54 -46 -70
l-32 -29 6 105 c22 382 16 645 -17 723 -16 39 -31 45 -61 24 -17 -13 -18 -34
-16 -330 1 -175 0 -317 -3 -317 -12 0 -46 81 -65 156 -11 43 -31 169 -46 279
-37 294 -87 526 -121 560 -19 19 -24 19 -53 -1z m194 -1124 c49 -97 69 -253
45 -358 -12 -51 -49 -132 -60 -132 -5 0 -25 27 -45 59 -43 72 -54 148 -36 271
14 96 48 210 61 210 5 0 21 -22 35 -50z m243 -407 c-3 -107 -8 -166 -18 -183
-14 -27 -151 -180 -161 -180 -22 0 60 310 117 443 43 100 44 101 56 89 7 -7 9
-70 6 -169z m-415 -82 c27 -25 57 -62 67 -82 22 -42 40 -140 40 -218 l0 -55
-36 35 c-85 82 -137 194 -150 321 -8 84 -11 84 79 -1z m468 -323 c-39 -208
-109 -345 -215 -421 l-29 -21 6 70 c9 105 59 232 129 325 53 71 107 123 117
113 2 -2 -2 -32 -8 -66z m-441 -197 c56 -75 66 -108 76 -252 8 -132 -1 -143
-61 -77 -82 91 -154 275 -180 463 l-7 50 62 -60 c34 -33 83 -89 110 -124z
m490 -186 c0 -19 -89 -244 -121 -305 -38 -73 -140 -200 -161 -200 -16 0 0 103
29 191 31 96 61 142 159 240 69 70 94 90 94 74z m-706 -88 c113 -136 228 -314
247 -379 14 -52 26 -158 18 -158 -17 0 -111 96 -148 151 -43 65 -68 123 -112
269 -36 119 -38 156 -5 117z m692 -399 c-22 -138 -107 -307 -203 -405 -78 -79
-98 -82 -88 -15 10 69 42 158 83 232 35 62 184 230 205 230 6 0 7 -16 3 -42z
m-612 -168 c88 -73 159 -165 175 -228 17 -63 18 -144 2 -150 -23 -8 -153 136
-194 215 -57 110 -95 233 -71 233 3 0 43 -31 88 -70z m611 -285 c-36 -138
-130 -306 -227 -406 -84 -86 -97 -88 -87 -14 10 75 24 116 77 220 37 72 65
109 139 185 106 107 122 110 98 15z m-665 -72 c76 -80 132 -165 161 -242 24
-63 54 -210 45 -219 -18 -18 -177 181 -225 281 -45 94 -77 247 -52 247 5 0 37
-30 71 -67z m680 -353 c-21 -96 -59 -181 -109 -249 -71 -94 -195 -211 -224
-211 -27 0 44 182 109 283 52 80 137 191 192 252 l37 40 3 -30 c2 -17 -2 -55
-8 -85z m-688 -114 c84 -97 122 -154 149 -225 22 -58 39 -211 23 -211 -20 0
-146 150 -180 213 -33 64 -84 234 -84 285 0 36 18 24 92 -62z"/>
<path d="M2330 8370 c-12 -8 -13 -15 -2 -52 7 -24 16 -54 19 -68 6 -24 6 -24
-18 -7 -47 34 -118 67 -157 73 -53 8 -112 -11 -112 -37 0 -27 67 -72 155 -104
119 -44 154 -89 256 -325 22 -52 43 -101 46 -107 3 -8 -3 -13 -17 -13 -15 0
-49 27 -101 80 -62 64 -83 80 -107 80 -43 0 -57 -21 -41 -64 7 -20 10 -38 6
-42 -3 -4 -29 3 -57 15 -28 12 -70 22 -93 23 -63 2 -214 -14 -229 -23 -25 -16
14 -62 84 -98 61 -31 75 -34 192 -40 171 -9 177 -18 43 -62 -97 -31 -111 -47
-78 -83 31 -33 83 -50 128 -41 20 4 72 24 114 46 181 90 240 70 320 -107 17
-38 62 -134 100 -214 69 -146 96 -240 68 -240 -8 0 -63 37 -124 81 -156 115
-207 136 -269 108 -33 -15 -46 -56 -46 -144 0 -89 -14 -129 -81 -236 -91 -146
-114 -203 -113 -289 0 -41 8 -99 17 -129 24 -76 22 -95 -17 -159 -48 -79 -70
-160 -61 -228 14 -115 107 -244 240 -334 53 -36 81 -64 112 -111 80 -124 155
-180 271 -204 39 -8 81 -19 94 -24 31 -12 75 -62 122 -140 44 -72 148 -300
143 -314 -1 -5 -39 30 -82 79 -124 136 -197 183 -327 209 -15 3 -56 31 -92 63
-166 147 -312 191 -468 142 -91 -28 -158 -26 -264 11 -77 26 -100 30 -169 26
-173 -8 -308 -129 -254 -228 5 -11 41 -40 78 -64 101 -64 140 -124 200 -308
49 -146 122 -243 261 -345 30 -22 82 -76 115 -119 63 -81 131 -132 210 -156
24 -7 95 -12 175 -11 130 0 141 2 275 43 238 73 396 68 521 -15 140 -93 268
-227 514 -536 68 -84 134 -165 148 -180 22 -24 23 -28 9 -34 -9 -3 -32 -1 -51
6 -62 20 -266 178 -406 314 -134 131 -211 190 -293 226 -203 90 -432 58 -660
-92 -50 -34 -130 -76 -175 -94 -105 -41 -200 -102 -257 -166 -25 -28 -77 -103
-117 -167 -57 -92 -94 -138 -183 -226 -121 -119 -158 -175 -153 -232 5 -64 36
-77 196 -84 146 -6 176 -15 299 -92 107 -66 199 -79 359 -48 137 26 163 26
299 1 181 -33 280 -23 411 40 76 37 136 89 225 197 128 152 201 210 308 243
74 23 127 25 196 6 66 -17 83 -26 185 -99 156 -110 322 -292 463 -508 55 -84
91 -119 121 -119 17 0 59 48 83 94 20 39 20 104 -1 148 -44 90 -239 311 -370
416 -103 83 -341 330 -425 442 -178 236 -225 322 -225 415 1 63 14 98 74 185
49 73 70 156 70 281 0 85 5 124 21 172 11 34 24 67 29 72 4 6 13 27 20 48 25
78 -36 110 -126 66 -58 -28 -251 -222 -277 -279 -18 -38 -21 -63 -20 -165 1
-66 9 -162 18 -214 9 -51 14 -95 11 -98 -2 -2 -22 26 -44 64 -171 298 -258
489 -362 796 -72 210 -72 227 1 181 123 -77 276 -72 406 13 97 64 136 138 137
258 0 91 -23 154 -88 238 -21 27 -36 50 -34 51 2 1 38 31 82 66 127 103 182
212 174 344 -13 188 -158 333 -346 344 -64 4 -90 0 -156 -22 -44 -15 -82 -23
-86 -19 -3 4 -12 37 -19 72 -26 132 -90 254 -190 363 -53 58 -53 58 -40 95 27
82 96 164 164 194 22 10 78 25 124 33 100 19 156 48 170 89 14 40 1 61 -48 76
-46 13 -50 27 -26 84 24 58 18 95 -28 177 -34 60 -48 76 -69 78 -30 4 -80 -36
-123 -98 -31 -45 -44 -49 -70 -20 -43 48 -106 6 -145 -95 -30 -80 -38 -225
-17 -315 14 -56 14 -67 2 -79 -12 -13 -20 -2 -56 75 -96 209 -155 390 -165
512 -5 62 -1 102 21 207 30 143 34 219 16 264 -15 35 -28 41 -58 30 -41 -15
-56 -64 -64 -215 -8 -138 -19 -194 -38 -194 -20 0 -121 285 -152 428 -27 123
-54 188 -82 196 -33 9 -80 7 -97 -4z m980 -886 c0 -4 -15 -39 -34 -78 -36 -73
-147 -207 -162 -194 -23 24 59 178 129 240 38 35 67 48 67 32z m-724 -556 c18
-35 104 -302 104 -324 0 -8 -5 -14 -11 -14 -20 0 -108 100 -133 152 -22 47
-24 63 -21 143 2 50 3 91 4 93 4 11 44 -24 57 -50z m132 -24 c48 -34 101 -193
84 -257 -8 -31 -9 -32 -21 -10 -6 13 -28 69 -48 125 -59 171 -60 174 -15 142z
m199 -167 c25 -73 22 -206 -6 -324 -21 -86 -34 -113 -48 -100 -3 3 -2 116 2
251 6 202 10 244 21 235 7 -6 21 -34 31 -62z m-349 -156 c40 -53 91 -118 112
-146 44 -56 78 -141 62 -157 -6 -6 -52 32 -131 111 -137 136 -171 190 -171
277 0 63 9 74 35 38 11 -15 53 -71 93 -123z m480 88 c8 -24 15 -93 16 -154 1
-141 -40 -319 -85 -369 l-28 -31 -1 26 c0 14 11 81 25 149 17 83 25 156 25
224 0 194 18 252 48 155z m145 -185 c33 -91 4 -258 -54 -310 -37 -33 -41 -5
-19 116 11 62 20 137 20 166 0 98 23 110 53 28z m-630 -161 c214 -224 296
-343 238 -343 -38 0 -394 338 -424 402 -9 20 -17 59 -17 88 0 51 0 51 22 36
12 -9 94 -91 181 -183z m1038 7 c10 -6 19 -20 19 -31 0 -19 -4 -20 -32 -15
-108 22 -128 17 -128 -34 0 -23 8 -32 48 -51 82 -41 59 -99 -39 -99 -43 0 -49
3 -69 36 -41 66 -13 166 55 194 29 12 123 12 146 0z m171 -74 c28 -35 23 -48
-19 -44 -28 2 -41 9 -50 28 -25 50 31 64 69 16z m-1321 -88 c265 -222 325
-278 298 -278 -19 0 -196 120 -293 198 -40 32 -74 68 -82 88 -30 72 -18 71 77
-8z m1316 -96 c-6 -53 -29 -76 -67 -67 -35 9 -43 20 -43 56 0 22 8 39 26 55
23 20 31 22 58 12 30 -10 31 -13 26 -56z m-1327 -64 c144 -80 305 -207 286
-226 -7 -6 -211 98 -282 145 -45 29 -104 95 -104 117 0 11 39 -3 100 -36z
m834 13 c21 -23 14 -38 -20 -51 -56 -22 -123 20 -88 54 22 23 87 21 108 -3z
m-196 -69 c3 -16 -8 -35 -36 -62 -22 -22 -45 -40 -51 -40 -6 0 -11 18 -11 44
0 36 5 48 27 66 34 26 67 23 71 -8z m304 -49 c39 -45 34 -101 -14 -154 -34
-37 -38 -34 -52 33 -3 14 -17 40 -31 56 -14 17 -25 33 -25 36 0 8 73 45 91 46
9 0 23 -8 31 -17z m-972 -50 c36 -22 113 -63 172 -92 106 -51 208 -129 208
-157 0 -12 -6 -12 -37 2 -21 9 -87 34 -148 56 -137 49 -174 73 -230 149 -40
54 -59 98 -37 86 4 -3 36 -22 72 -44z m804 -34 c35 -28 36 -80 1 -114 -45 -46
-145 -24 -145 33 0 46 51 92 111 101 4 1 18 -8 33 -20z m354 -209 c57 -35 35
-83 -38 -83 -67 0 -92 41 -50 83 25 25 46 25 88 0z m-832 -111 c45 -14 98 -79
75 -93 -17 -11 -171 84 -171 104 0 10 43 5 96 -11z m667 -31 c53 -61 -42 -123
-127 -83 -62 30 -70 73 -18 94 63 24 117 20 145 -11z m261 -14 c11 -29 6 -53
-13 -64 -42 -22 -71 -7 -71 35 0 37 71 62 84 29z m-1772 -237 c30 -13 78 -32
108 -42 30 -10 76 -31 102 -47 45 -28 85 -74 74 -86 -17 -16 -260 89 -333 145
-34 26 -44 53 -18 53 8 0 38 -11 67 -23z m397 -38 c52 -29 150 -173 213 -311
17 -38 17 -38 -6 -38 -32 0 -95 70 -191 213 -44 65 -86 127 -94 138 -12 17
-11 19 14 19 15 0 44 -9 64 -21z m239 -76 c90 -96 129 -163 186 -315 39 -105
42 -118 25 -118 -25 0 -80 73 -162 217 -103 178 -162 303 -144 303 6 0 49 -39
95 -87z m-794 61 c25 -10 8 -24 -30 -24 -32 0 -42 8 -27 23 8 9 36 9 57 1z
m231 -145 c68 -31 69 -32 40 -39 -16 -4 -61 -8 -98 -9 -81 -1 -137 18 -137 48
0 51 85 51 195 0z m867 -36 c33 -30 134 -381 115 -400 -10 -10 -76 56 -97 97
-39 76 -80 212 -80 266 0 49 2 54 22 54 12 0 30 -8 40 -17z m-602 -113 c22
-11 40 -24 40 -29 0 -8 -151 -21 -258 -21 -62 0 -132 20 -132 39 0 13 108 28
218 30 75 1 100 -3 132 -19z m833 -182 c42 -117 90 -206 157 -289 28 -34 50
-66 50 -71 0 -4 -10 -8 -22 -8 -39 0 -118 95 -181 217 -59 114 -77 182 -63
239 10 38 19 24 59 -88z m-618 9 c82 -33 148 -74 140 -87 -4 -6 -42 -10 -85
-10 -44 0 -128 -7 -187 -16 -59 -9 -132 -14 -162 -11 -68 7 -151 48 -190 93
-56 63 -56 63 192 60 217 -2 224 -2 292 -29z m1435 -92 c0 -3 -13 -31 -29 -63
-15 -31 -41 -94 -56 -140 -16 -49 -32 -81 -38 -79 -16 5 -21 113 -8 159 12 40
91 128 116 128 8 0 15 -2 15 -5z m-1148 -102 c21 -8 36 -19 33 -23 -3 -4 -35
-13 -72 -20 -38 -6 -122 -25 -188 -42 -139 -35 -220 -35 -278 1 -38 23 -54 50
-34 55 15 4 241 36 327 46 80 10 162 3 212 -17z m240 -99 c17 -11 7 -26 -27
-40 -19 -8 -99 -33 -178 -56 -120 -35 -156 -42 -237 -42 -104 -1 -154 8 -147
27 3 10 286 89 417 116 42 9 155 5 172 -5z m224 -569 c27 -8 77 -34 111 -57
74 -52 193 -156 193 -169 0 -23 -46 -3 -158 69 -67 42 -149 94 -182 114 -33
21 -60 42 -60 48 0 14 38 12 96 -5z m-236 -36 c88 -20 301 -146 383 -225 29
-29 35 -40 26 -50 -6 -8 -18 -14 -25 -14 -19 0 -257 125 -324 170 -30 21 -83
51 -117 69 -35 17 -63 35 -63 40 0 21 52 26 120 10z m-250 -75 c99 -29 363
-170 445 -238 26 -21 28 -25 13 -31 -32 -12 -174 33 -374 119 -253 109 -290
135 -222 155 49 14 78 13 138 -5z m-183 -145 c53 -11 354 -159 357 -174 0 -6
-24 -11 -56 -13 -44 -2 -74 4 -135 28 -92 35 -225 65 -333 75 -124 12 -136 29
-46 71 57 26 132 31 213 13z m-101 -189 c107 -27 165 -51 161 -64 -2 -6 -36
-18 -76 -26 -70 -14 -77 -13 -209 14 -155 31 -179 40 -161 62 31 37 167 44
285 14z m978 -8 c3 -5 -23 -54 -57 -110 -34 -55 -78 -129 -97 -162 -40 -72
-116 -151 -168 -176 -41 -19 -132 -32 -132 -18 0 5 16 22 35 37 43 34 100 117
154 225 49 97 109 167 166 193 42 20 90 25 99 11z m226 -40 c0 -5 -27 -32 -60
-60 -33 -28 -83 -78 -111 -112 -28 -33 -57 -59 -63 -57 -16 5 -19 64 -5 98 15
38 71 86 133 115 51 24 106 32 106 16z m-500 -16 c0 -25 -155 -250 -211 -305
-72 -71 -141 -103 -238 -109 l-76 -5 194 189 c106 104 214 201 240 216 50 30
91 36 91 14z m-300 -65 c0 -13 -177 -179 -245 -229 -98 -72 -171 -104 -247
-110 -38 -2 -68 -1 -68 4 0 5 52 43 116 84 64 40 151 101 193 133 106 83 251
151 251 118z m-666 -42 c-10 -18 -152 -79 -181 -79 l-26 0 24 26 c42 46 80 64
137 64 37 0 51 -3 46 -11z m295 -36 c0 -5 -26 -29 -57 -56 -75 -63 -165 -106
-239 -113 -59 -6 -143 9 -143 26 0 5 46 24 102 41 56 18 134 45 173 61 58 24
111 40 158 47 4 1 7 -2 6 -6z"/>
<path d="M5086 6743 c-4 -10 -27 -79 -51 -153 -81 -255 -287 -845 -299 -856
-8 -8 -152 -14 -475 -18 -314 -4 -469 -10 -478 -17 -18 -15 -16 -50 3 -77 17
-24 269 -227 492 -396 189 -144 232 -183 232 -210 0 -31 -73 -275 -216 -724
-66 -205 -74 -256 -43 -275 26 -16 59 -1 149 68 105 81 302 222 475 340 72 48
152 105 179 127 27 21 57 38 68 38 10 0 132 -85 271 -188 301 -224 445 -328
511 -371 89 -56 138 -34 116 52 -6 23 -64 200 -129 392 -158 467 -176 531
-160 552 8 8 119 97 249 196 513 394 568 446 511 477 -12 6 -202 13 -496 18
-391 7 -478 11 -489 23 -16 16 -115 295 -241 679 -48 146 -92 281 -99 300 -10
29 -17 36 -43 38 -22 2 -32 -2 -37 -15z"/>
</g>
</svg>
